<?xml version="1.0" encoding="utf-8"?>
<!-- Uploaded to: SVG Repo, www.svgrepo.com, Generator: SVG Repo Mixer Tools -->
<svg width="800px" height="800px" viewBox="-2 0 20 20" xmlns="http://www.w3.org/2000/svg">
  <g id="fire" transform="translate(-4 -2)">
    <path id="secondary" fill="#2ca9bc" d="M12,21c-3.9,0-7-2-7-7s5-5,5-11c3,2,4.37,4.1,5,8a5,5,0,0,0,2-3c1,1,2,4,2,6C19,17.14,17.72,21,12,21Z"/>
    <path id="primary" d="M12,21c-3.9,0-7-2-7-7s5-5,5-11c3,2,4.37,4.1,5,8a5,5,0,0,0,2-3c1,1,2,4,2,6C19,17.14,17.72,21,12,21Z" fill="none" stroke="#000000" stroke-linecap="round" stroke-linejoin="round" stroke-width="2"/>
  </g>
</svg>